<?xml version="1.0" standalone="no"?>
<!DOCTYPE svg PUBLIC "-//W3C//DTD SVG 20010904//EN"
 "http://www.w3.org/TR/2001/REC-SVG-20010904/DTD/svg10.dtd">
<svg version="1.0" xmlns="http://www.w3.org/2000/svg"
 width="1024.000000pt" height="1024.000000pt" viewBox="0 0 1024.000000 1024.000000"
 preserveAspectRatio="xMidYMid meet">

<g transform="translate(0.000000,1024.000000) scale(0.100000,-0.100000)"
fill="#000000" stroke="none">
<path d="M2447 8459 c-253 -33 -480 -195 -593 -424 -87 -178 -79 121 -79
-2910 0 -2540 1 -2694 18 -2759 71 -278 290 -498 562 -566 79 -20 108 -20
2790 -18 l2710 3 80 27 c252 86 446 296 512 554 17 65 18 219 18 2759 l0 2690
-23 79 c-67 232 -248 432 -467 517 -160 62 5 59 -2854 58 -1433 -1 -2637 -5
-2674 -10z m2899 -1773 c451 -111 786 -466 881 -933 17 -82 18 -162 15 -1153
-4 -1037 -4 -1066 -23 -1085 -19 -20 -33 -20 -1157 -21 -625 -1 -1126 0 -1112
3 46 8 53 12 41 27 -6 7 -7 17 -3 21 4 5 1 5 -5 1 -7 -4 -13 -2 -13 3 0 6 -3
10 -7 10 -29 -5 -42 3 -40 24 0 12 4 24 8 27 4 3 11 18 14 33 9 33 -10 37 -19
5 -7 -22 -7 -22 -16 -3 -11 27 -18 7 -23 -60 -2 -27 -4 426 -5 1007 -2 1031
-1 1060 19 1164 49 254 164 463 355 643 181 169 390 271 639 311 106 16 337 4
451 -24z m-1435 -3173 c13 -16 12 -17 -3 -4 -10 7 -18 15 -18 17 0 8 8 3 21
-13z"/>
<path d="M4835 6551 c-108 -25 -224 -71 -317 -126 -90 -52 -249 -200 -314
-290 -64 -90 -131 -237 -159 -349 l-25 -99 0 -971 c0 -534 -3 -988 -7 -1009
-4 -26 -9 -34 -14 -25 -7 10 -9 10 -9 1 0 -7 0 -16 -1 -20 0 -5 -10 -19 -22
-32 -21 -23 -21 -24 -2 -16 11 4 29 9 40 10 11 2 490 4 1064 4 l1044 1 -7
1018 c-6 837 -10 1031 -22 1096 -73 387 -359 689 -753 797 -111 31 -383 36
-496 10z m-635 -1241 l0 -160 -55 0 -55 0 0 160 0 160 55 0 55 0 0 -160z
m1591 -314 c130 -46 198 -207 140 -331 -23 -50 -84 -109 -133 -130 -81 -33
-192 -13 -264 48 -103 87 -97 291 12 373 67 52 167 68 245 40z m-1591 -929 l0
-163 -27 2 c-16 1 -40 2 -55 3 l-28 1 0 160 0 160 55 0 55 0 0 -163z"/>
<path d="M5631 4844 c-88 -73 -10 -218 100 -185 52 16 79 53 79 108 0 36 -6
50 -29 74 -40 39 -105 41 -150 3z"/>
</g>
</svg>
